<svg height="800" viewBox="0 0 512 512" width="800" xmlns="http://www.w3.org/2000/svg"><path d="m256 5.333c-141.12 0-256 112.427-256 250.667s114.88 250.667 256 250.667 256-112.427 256-250.667-114.88-250.667-256-250.667zm0 480c-129.387 0-234.667-102.933-234.667-229.333s105.28-229.333 234.667-229.333 234.667 102.826 234.667 229.333-105.28 229.333-234.667 229.333z"/><path d="m369.28 247.467-181.653-133.44c-4.693-3.627-11.307-2.773-14.933 1.92-3.627 4.693-2.773 11.307 1.92 14.933.107.107.32.213.427.32l169.919 124.8-169.92 124.693c-4.8 3.52-5.76 10.133-2.24 14.933s10.133 5.76 14.933 2.24l181.654-133.226c4.8-3.52 5.76-10.133 2.24-14.933-.747-.854-1.494-1.6-2.347-2.24z"/></svg>